<svg height="128" width="536.9" xmlns="http://www.w3.org/2000/svg" xmlns:xlink="http://www.w3.org/1999/xlink"><radialGradient id="a" cx="59.537" cy="27.626" gradientTransform="matrix(1 0 0 -1 0 130)" gradientUnits="userSpaceOnUse" r="44.264"><stop offset="0" stop-color="#bf360c" stop-opacity=".2"/><stop offset="1" stop-color="#bf360c" stop-opacity=".02"/></radialGradient><radialGradient id="b" cx="59.411" cy="27.346" gradientTransform="matrix(1 0 0 -1 0 130)" gradientUnits="userSpaceOnUse" r="44.623"><stop offset="0" stop-color="#263238" stop-opacity=".2"/><stop offset="1" stop-color="#263238" stop-opacity=".02"/></radialGradient><radialGradient id="c" cx="-.74" cy="129" gradientTransform="matrix(1 0 0 -1 0 130)" gradientUnits="userSpaceOnUse" r="134.35"><stop offset="0" stop-color="#fff" stop-opacity=".1"/><stop offset="1" stop-color="#fff" stop-opacity="0"/></radialGradient><path d="m78.7 58-33.6-58h-44.8l37 64-37 64h44.8l33.5-58c2.2-3.7 2.2-8.3.1-12z" fill="none"/><path d="m59.4 102.3-10.6-18.4-25.5 44.1h21.8l14.6-25.2z" fill="#ffc107"/><path d="m78.7 58-33.6-58h-44.8l37 64-37 64h44.8l33.5-58c2.2-3.7 2.2-8.3.1-12z" fill="none"/><path d="m37.3 64 11.5 19.9-25.5 44.1h-23z" fill="#0f9d58"/><path d="m78.7 58-33.6-58h-44.8l37 64-37 64h44.8l33.5-58c2.2-3.7 2.2-8.3.1-12z" fill="none"/><path d="m45.1 127h-21.3l-.5 1h21.8l14.6-25.2-.3-.5z" fill="#bf360c" opacity=".2"/><path d="m78.7 58-33.6-58h-44.8l37 64-37 64h44.8l33.5-58c2.2-3.7 2.2-8.3.1-12z" fill="none"/><path d="m.8 127-.5 1h23l.5-1z" fill="#263238" opacity=".2"/><path d="m78.7 58-33.6-58h-44.8l37 64-37 64h44.8l33.5-58c2.2-3.7 2.2-8.3.1-12z" fill="none"/><path d="m.3 128h.5l36.8-63.5-.3-.5z" fill="#fff" opacity=".2"/><path d="m78.7 58-33.6-58h-44.8l37 64-37 64h44.8l33.5-58c2.2-3.7 2.2-8.3.1-12z" fill="none"/><path d="m59.7 102.8-10.9-18.9-2.7 4.6z" fill="url(#a)"/><path d="m78.7 58-33.6-58h-44.8l37 64-37 64h44.8l33.5-58c2.2-3.7 2.2-8.3.1-12z" fill="none"/><path d="m46.1 88.5 2.7-4.6-11.5-19.9-5.5 9.5z" fill="url(#b)"/><path d="m78.7 58-33.6-58h-44.8l37 64-37 64h44.8l33.5-58c2.2-3.7 2.2-8.3.1-12z" fill="none"/><path d="m23.3 0h-23l59.4 102.8 11.5-19.9z" fill="#4285f4"/><path d="m78.7 58-33.6-58h-44.8l37 64-37 64h44.8l33.5-58c2.2-3.7 2.2-8.3.1-12z" fill="none"/><path d="m78.7 70c2.1-3.7 2.1-8.3 0-12l-33.6-58h-21.8l47.9 82.9z" fill="#db4437"/><path d="m78.7 58-33.6-58h-44.8l37 64-37 64h44.8l33.5-58c2.2-3.7 2.2-8.3.1-12z" fill="none"/><path d="m71.2 82.9-.3-.5-11.2 19.4-58.9-101.8h-.5l59.4 102.8z" fill="#1a237e" opacity=".2"/><path d="m78.7 58-33.6-58h-44.8l37 64-37 64h44.8l33.5-58c2.2-3.7 2.2-8.3.1-12z" fill="none"/><path d="m45.1 1 33.5 58c1 1.7 1.5 3.6 1.6 5.5.1-2.2-.4-4.5-1.6-6.5l-33.5-58h-44.8l.6 1z" fill="#fff" opacity=".2"/><path d="m78.7 58-33.6-58h-44.8l37 64-37 64h44.8l33.5-58c2.2-3.7 2.2-8.3.1-12z" fill="none"/><path d="m71.2 82.9 7.5-12.9c1.2-2 1.7-4.3 1.6-6.5-.1 1.9-.6 3.8-1.6 5.5l-7.7 13.4z" fill="#3e2723" opacity=".2"/><path d="m78.7 58-33.6-58h-44.8l37 64-37 64h44.8l33.5-58c2.2-3.7 2.2-8.3.1-12z" fill="none"/><path d="m78.7 58-33.6-58h-44.8l37 64-37 64h44.8l33.5-58c2.2-3.7 2.2-8.3.1-12z" fill="url(#c)"/><path d="m176.6 33.2c0 7-2.1 12.6-6.2 16.7-4.7 4.9-10.9 7.4-18.4 7.4-7.2 0-13.4-2.5-18.4-7.5-5.1-5-7.6-11.2-7.6-18.7s2.5-13.6 7.6-18.7c5.1-5 11.2-7.5 18.4-7.5 3.6 0 7 .7 10.3 2.1s5.9 3.3 7.8 5.6l-4.4 4.4c-3.3-4-7.9-6-13.7-6-5.3 0-9.8 1.9-13.7 5.6-3.8 3.7-5.8 8.5-5.8 14.5 0 5.9 1.9 10.7 5.8 14.5 3.9 3.7 8.4 5.6 13.7 5.6 5.6 0 10.3-1.9 14-5.6 2.4-2.4 3.8-5.8 4.2-10.1h-18.2v-6h24.3c.1 1.2.3 2.5.3 3.7zm6.3 23v-50.1h15.3c7.7 0 13.9 2.3 18.5 7 4.6 4.6 6.9 10.7 6.9 18.1s-2.3 13.5-6.9 18.1-10.8 7-18.5 7h-15.3zm6.5-6.2h8.9c5.8 0 10.4-1.7 13.8-5s5.1-8 5.1-13.9-1.7-10.6-5.1-13.9-8-5-13.8-5h-8.9zm89-16.8c0 7-2.1 12.6-6.2 16.7-4.7 4.9-10.9 7.4-18.4 7.4-7.2 0-13.4-2.5-18.4-7.5-5.1-5-7.6-11.2-7.6-18.7s2.5-13.6 7.6-18.7c5.1-5 11.2-7.5 18.4-7.5 3.6 0 7 .7 10.3 2.1s5.9 3.3 7.8 5.6l-4.4 4.4c-3.3-4-7.9-6-13.7-6-5.3 0-9.8 1.9-13.7 5.6-3.8 3.7-5.8 8.5-5.8 14.5 0 5.9 1.9 10.7 5.8 14.5 3.9 3.7 8.4 5.6 13.7 5.6 5.6 0 10.3-1.9 14-5.6 2.4-2.4 3.8-5.8 4.2-10.1h-18.2v-6h24.2c.2 1.2.4 2.5.4 3.7zm23.2 23v-50.1h15.3c7.7 0 13.9 2.3 18.5 7 4.6 4.6 6.9 10.7 6.9 18.1s-2.3 13.5-6.9 18.1-10.8 7-18.5 7h-15.3zm6.4-6.2h8.9c5.8 0 10.4-1.7 13.8-5s5.1-8 5.1-13.9-1.7-10.6-5.1-13.9-8-5-13.8-5h-8.9zm55.4 7.3c-5.2 0-9.4-1.7-12.6-5.2s-4.9-7.8-4.9-13.1c0-5 1.6-9.3 4.7-12.9s7.2-5.4 12.1-5.4c5.1 0 9.2 1.7 12.2 5 3.1 3.3 4.6 7.7 4.6 13.3l-.1 1.2h-27.1c.2 3.5 1.3 6.2 3.5 8.2 2.1 2 4.6 3 7.5 3 4.6 0 7.7-2 9.4-5.9l5.7 2.4c-1.1 2.7-3 4.9-5.5 6.7-2.6 1.8-5.8 2.7-9.5 2.7zm9.2-22.4c-.1-2-1-3.8-2.7-5.6s-4.1-2.7-7.4-2.7c-2.4 0-4.4.7-6.2 2.2s-3 3.5-3.6 6h19.9zm20.4 21.3-13.9-34.3h7l10.1 26.6h.1l10.2-26.6h6.9l-14 34.3zm30.7 0h-6.4v-50.1h29.3v6.2h-22.8v16.5h20.6v6h-20.6v21.4zm42.3 1.1c-5.2 0-9.4-1.7-12.6-5.2s-4.9-7.8-4.9-13.1c0-5 1.6-9.3 4.7-12.9 3.2-3.6 7.2-5.4 12.1-5.4 5.1 0 9.2 1.7 12.2 5 3.1 3.3 4.6 7.7 4.6 13.3l-.1 1.2h-27.1c.2 3.5 1.3 6.2 3.5 8.2 2.1 2 4.6 3 7.5 3 4.6 0 7.7-2 9.4-5.9l5.7 2.4c-1.1 2.7-3 4.9-5.5 6.7-2.7 1.8-5.8 2.7-9.5 2.7zm9.2-22.4c-.1-2-1-3.8-2.7-5.6s-4.1-2.7-7.4-2.7c-2.4 0-4.4.7-6.2 2.2s-3 3.5-3.6 6h19.9zm23.9 22.4c-3.8 0-7-.9-9.5-2.8s-4.3-4.2-5.5-7l5.7-2.4c1.8 4.3 4.9 6.4 9.3 6.4 2 0 3.7-.4 4.9-1.3 1.3-.9 1.9-2.1 1.9-3.5 0-2.2-1.6-3.8-4.7-4.5l-6.9-1.7c-2.2-.6-4.3-1.6-6.2-3.2-2-1.6-2.9-3.7-2.9-6.3 0-3 1.3-5.5 4-7.4s5.9-2.8 9.6-2.8c3 0 5.7.7 8.1 2.1s4.1 3.3 5.1 5.9l-5.6 2.3c-1.3-3-3.9-4.6-7.8-4.6-1.9 0-3.5.4-4.8 1.2s-2 1.9-2 3.2c0 2 1.5 3.3 4.5 4l6.8 1.6c3.2.7 5.6 2 7.1 3.9 1.5 1.8 2.3 3.9 2.3 6.2 0 3.1-1.3 5.6-3.8 7.7-2.3 2-5.6 3-9.6 3zm32.9-.5c-3.6 0-6.3-1-8.2-2.9s-2.8-4.6-2.8-8.1v-18h-6v-5.9h6v-10.5h6.4v10.5h8.4v5.9h-8.4v17.5c0 3.7 1.5 5.6 4.6 5.6 1.2 0 2.1-.2 2.9-.6l2.2 5.5c-1.3.7-3 1-5.1 1zm-389.5 66.5c-3.6 0-7.2-1.2-10.7-3.6s-5.8-5.7-6.8-10l5.9-2.4c.7 2.8 2.1 5.1 4.3 7s4.6 2.8 7.3 2.8c2.8 0 5.2-.7 7.2-2.2s3-3.5 3-6c0-2.8-1-5-3-6.5s-5.1-2.9-9.4-4.2c-4.4-1.4-7.8-3.2-10.1-5.4s-3.4-5.1-3.4-8.5c0-3.6 1.4-6.7 4.3-9.4 2.8-2.7 6.6-4 11.1-4 4.2 0 7.7 1.1 10.4 3.2s4.4 4.4 5.2 7l-5.9 2.4c-.4-1.6-1.5-3.1-3.1-4.4-1.7-1.4-3.8-2-6.4-2-2.5 0-4.6.7-6.3 2.1-1.8 1.4-2.6 3.1-2.6 5.1 0 1.9.8 3.4 2.4 4.7s4 2.4 7.1 3.5c2.5.8 4.5 1.6 6.2 2.3s3.3 1.7 5 3c1.7 1.2 3 2.8 3.9 4.6s1.3 4 1.3 6.4-.5 4.6-1.5 6.5-2.3 3.4-4 4.5-3.4 2-5.4 2.6c-2.1.6-4 .9-6 .9zm37.8 0c-5.2 0-9.4-1.7-12.6-5.2s-4.9-7.8-4.9-13.1c0-5 1.6-9.3 4.7-12.9s7.2-5.4 12.1-5.4c5.1 0 9.2 1.7 12.2 5 3.1 3.3 4.6 7.7 4.6 13.3l-.1 1.2h-27.1c.2 3.5 1.3 6.2 3.5 8.2 2.1 2 4.6 3 7.5 3 4.6 0 7.7-2 9.4-5.9l5.7 2.4c-1.1 2.7-3 4.9-5.5 6.7-2.6 1.8-5.7 2.7-9.5 2.7zm9.3-22.4c-.1-2-1-3.8-2.7-5.6s-4.1-2.7-7.4-2.7c-2.4 0-4.4.7-6.2 2.2s-3 3.5-3.6 6h19.9zm22.1 22.4c-3.6 0-6.7-1.1-9.1-3.1-2.4-2.1-3.7-4.9-3.7-8.3 0-3.7 1.4-6.7 4.3-8.8s6.5-3.2 10.7-3.2c3.8 0 6.9.7 9.3 2.1v-1c0-2.5-.9-4.5-2.6-6.1-1.7-1.5-3.9-2.3-6.4-2.3-1.9 0-3.6.4-5.1 1.3s-2.6 2.1-3.1 3.6l-5.9-2.5c.8-2.1 2.4-4 4.7-5.7 2.3-1.8 5.4-2.6 9.2-2.6 4.4 0 8 1.3 10.9 3.9s4.3 6.2 4.3 10.8v20.7h-6.2v-4.8h-.3c-2.3 4.1-6.1 6-11 6zm1-5.9c2.7 0 5.1-1 7.2-3 2.2-2 3.3-4.3 3.3-7-1.8-1.5-4.5-2.2-8.2-2.2-3.1 0-5.5.7-7.1 2-1.6 1.4-2.4 2.9-2.4 4.8 0 1.7.7 3 2.2 4 1.5.9 3.1 1.4 5 1.4zm35.2 5.9c-3.8 0-7-.9-9.5-2.8s-4.3-4.2-5.5-7l5.7-2.4c1.8 4.3 4.9 6.4 9.3 6.4 2 0 3.7-.4 4.9-1.3 1.3-.9 1.9-2.1 1.9-3.5 0-2.2-1.6-3.8-4.7-4.5l-6.9-1.7c-2.2-.6-4.3-1.6-6.2-3.2-2-1.6-2.9-3.7-2.9-6.3 0-3 1.3-5.5 4-7.4s5.9-2.8 9.6-2.8c3 0 5.7.7 8.1 2.1s4.1 3.3 5.1 5.9l-5.6 2.3c-1.3-3-3.9-4.6-7.8-4.6-1.9 0-3.5.4-4.8 1.2s-2 1.9-2 3.2c0 2 1.5 3.3 4.6 4l6.8 1.6c3.2.7 5.6 2 7.1 3.9 1.5 1.8 2.3 3.9 2.3 6.2 0 3.1-1.3 5.6-3.8 7.7-2.5 2-5.7 3-9.7 3zm20.9-31.3c3.3-3.5 7.5-5.2 12.7-5.2 5.1 0 9.4 1.7 12.7 5.2s5 7.8 5 13.1c0 5.2-1.7 9.6-5 13.1s-7.5 5.2-12.7 5.2c-5.1 0-9.4-1.7-12.7-5.2s-5-7.8-5-13.1c.1-5.3 1.7-9.6 5-13.1zm4.8 22c2.2 2.3 4.8 3.4 7.9 3.4 3 0 5.7-1.1 7.9-3.4s3.3-5.3 3.3-9-1.1-6.7-3.3-9-4.8-3.4-7.9-3.4c-3 0-5.7 1.1-7.9 3.4s-3.3 5.3-3.3 9c0 3.8 1.1 6.8 3.3 9zm36.3-26.1v4.8h.3c.9-1.6 2.4-3 4.4-4.2 2-1.1 4.2-1.7 6.4-1.7 4.2 0 7.5 1.3 9.7 3.9s3.4 6.1 3.4 10.5v21h-6.4v-20c0-6.3-2.8-9.5-8.5-9.5-2.7 0-4.8 1.1-6.5 3.2s-2.5 4.6-2.5 7.4v19h-6.4v-34.4zm76.6 34.3h-30.5v-6.4c9.1-9.2 15-15.2 17.6-18 2.3-2.6 3.8-4.5 4.6-5.8s1.2-3 1.2-4.9c0-2-.8-3.8-2.4-5.3s-3.7-2.3-6.4-2.3c-2.4 0-4.4.7-5.9 2.1s-2.4 3-2.9 4.6l-5.9-2.4c.8-2.5 2.5-4.9 5-7.1s5.8-3.4 9.8-3.4c4.4 0 8.1 1.4 10.9 4.1s4.3 5.9 4.3 9.7c0 4.7-2.5 9.7-7.6 15l-14 14.1h22.2zm36.9-6.1c-3.5 4.8-8.2 7.2-13.9 7.2s-10.4-2.4-13.9-7.2-5.3-10.8-5.3-17.9 1.8-13.1 5.3-17.9 8.2-7.2 13.9-7.2 10.4 2.4 13.9 7.2 5.3 10.7 5.3 17.9-1.8 13.1-5.3 17.9zm-14 1.1c3.8 0 6.9-1.8 9.2-5.4s3.5-8.1 3.5-13.5c0-5.5-1.2-10-3.5-13.5-2.3-3.6-5.4-5.4-9.2-5.4-3.9 0-7 1.8-9.2 5.4-2.3 3.6-3.4 8.1-3.4 13.5s1.1 9.9 3.4 13.5 5.4 5.4 9.2 5.4zm39.7 5h-6.4v-39.9l-9.3 4.1-2.5-5.5 14.1-6.6h4.1zm35.3-3c-3.1 2.8-7 4.1-11.5 4.1-4.6 0-8.4-1.4-11.5-4.1-3.1-2.8-4.7-6.2-4.7-10.2 0-2.7.7-5 2.2-7 1.4-2 3.3-3.6 5.7-4.8v-.3c-1.8-1.2-3.3-2.6-4.5-4.4s-1.8-3.7-1.8-5.6c0-3.9 1.4-7.1 4.1-9.7 2.8-2.6 6.3-3.9 10.5-3.9s7.7 1.3 10.5 3.9 4.1 5.8 4.1 9.7c0 2-.6 3.8-1.8 5.6s-2.7 3.3-4.5 4.4v.3c2.3 1.2 4.2 2.8 5.7 4.8 1.4 2 2.2 4.4 2.2 7 0 4-1.6 7.4-4.7 10.2zm-18.4-4.4c1.9 1.6 4.2 2.4 6.9 2.4s5-.8 6.9-2.4 2.8-3.6 2.8-6.2c0-2.5-.9-4.5-2.8-6.1s-4.2-2.4-6.9-2.4-5 .8-6.9 2.4-2.8 3.6-2.8 6.1.9 4.6 2.8 6.2zm1.1-22.7c1.5 1.4 3.4 2.1 5.8 2.1 2.3 0 4.3-.7 5.8-2.1s2.3-3.2 2.3-5.4-.8-4-2.3-5.3-3.4-2-5.8-2c-2.3 0-4.3.7-5.8 2s-2.3 3.1-2.3 5.3.8 4 2.3 5.4z" fill="#fff"/></svg>