<svg height="32" width="134.1" xmlns="http://www.w3.org/2000/svg"><g fill="#673ab7"><path d="m5.2 0h-5.2l14.8 25.6 2.6-4.5z"/><path d="m19.3 14.6-8.4-14.6h-5.1l11.9 20.6 1.7-2.9c.3-.5.4-1 .4-1.6 0-.5-.2-1.1-.5-1.5z"/><path d="m9 16.7-8.8 15.3h5.1l6.3-10.9z"/><path d="m11.9 21.6-6 10.4h5.2l3.4-5.9z"/><path d="m44 8.4c0 1.8-.5 3.1-1.6 4.2-1.2 1.2-2.7 1.9-4.6 1.9-1.8 0-3.3-.6-4.6-1.9s-1.9-2.8-1.9-4.7.6-3.4 1.9-4.7c1.3-1.2 2.8-1.8 4.6-1.8.9 0 1.8.2 2.6.5s1.5.8 2 1.4l-1.1 1.1c-.8-1-2-1.5-3.4-1.5-1.3 0-2.5.5-3.4 1.4-1 .9-1.4 2.1-1.4 3.6s.5 2.7 1.4 3.6c1 .9 2.1 1.4 3.4 1.4 1.4 0 2.6-.5 3.5-1.4.6-.6 1-1.5 1.1-2.5h-4.6v-1.5h6.1c-.1.3 0 .6 0 .9zm1.6 5.8v-12.6h3.8c1.9 0 3.5.6 4.6 1.7 1.2 1.2 1.7 2.7 1.7 4.5s-.6 3.4-1.7 4.5c-1.2 1.2-2.7 1.7-4.6 1.7h-3.8zm1.6-1.6h2.2c1.4 0 2.6-.4 3.4-1.2s1.3-2 1.3-3.5-.4-2.6-1.3-3.5c-.8-.8-2-1.3-3.4-1.3h-2.2zm22.2-4.2c0 1.8-.5 3.1-1.6 4.2-1.2 1.2-2.7 1.9-4.6 1.9-1.8 0-3.3-.6-4.6-1.9s-1.9-2.8-1.9-4.7.6-3.4 1.9-4.7 2.8-1.9 4.6-1.9c.9 0 1.8.2 2.6.5s1.5.8 2 1.4l-1.1 1.1c-.8-1-2-1.5-3.4-1.5-1.3 0-2.5.5-3.4 1.4-1 .9-1.4 2.1-1.4 3.6s.5 2.7 1.4 3.6c1 .9 2.1 1.4 3.4 1.4 1.4 0 2.6-.5 3.5-1.4.6-.6 1-1.5 1.1-2.5h-4.6v-1.4h6.1zm5.8 5.8v-12.6h3.8c1.9 0 3.5.6 4.6 1.7 1.2 1.2 1.7 2.7 1.7 4.5s-.6 3.4-1.7 4.5c-1.2 1.2-2.7 1.7-4.6 1.7h-3.8zm1.6-1.6h2.2c1.4 0 2.6-.4 3.4-1.2s1.3-2 1.3-3.5-.4-2.6-1.3-3.5c-.8-.8-2-1.3-3.4-1.3h-2.2zm13.9 1.9c-1.3 0-2.3-.4-3.2-1.3-.8-.9-1.2-2-1.2-3.3 0-1.2.4-2.3 1.2-3.2s1.8-1.3 3-1.3c1.3 0 2.3.4 3.1 1.2s1.1 1.9 1.1 3.3v.3h-6.8c0 .9.3 1.5.9 2 .5.5 1.2.8 1.9.8 1.2 0 1.9-.5 2.3-1.5l1.4.6c-.3.7-.7 1.2-1.4 1.7-.6.4-1.4.7-2.3.7zm2.3-5.6c0-.5-.3-1-.7-1.4s-1-.7-1.8-.7c-.6 0-1.1.2-1.5.6s-.7.9-.9 1.5zm5.1 5.3-3.5-8.6h1.8l2.5 6.6 2.6-6.6h1.7l-3.5 8.6zm7.7 0h-1.6v-12.6h7.3v1.5h-5.7v4.1h5.1v1.5h-5.1zm10.5.3c-1.3 0-2.3-.4-3.2-1.3-.8-.9-1.2-2-1.2-3.3 0-1.2.4-2.3 1.2-3.2s1.8-1.3 3-1.3c1.3 0 2.3.4 3.1 1.2s1.1 1.9 1.1 3.3v.3h-6.8c0 .9.3 1.5.9 2 .5.5 1.2.8 1.9.8 1.2 0 1.9-.5 2.3-1.5l1.4.6c-.3.7-.7 1.2-1.4 1.7-.6.4-1.3.7-2.3.7zm2.3-5.6c0-.5-.3-1-.7-1.4s-1-.7-1.8-.7c-.6 0-1.1.2-1.5.6s-.7.9-.9 1.5zm6 5.6c-1 0-1.7-.2-2.4-.7-.6-.5-1.1-1-1.4-1.8l1.4-.6c.5 1.1 1.2 1.6 2.3 1.6.5 0 .9-.1 1.2-.3s.5-.5.5-.9c0-.6-.4-.9-1.2-1.1l-1.7-.4c-.5-.1-1.1-.4-1.6-.8s-.7-.9-.7-1.6c0-.8.3-1.4 1-1.8.7-.5 1.5-.7 2.4-.7.8 0 1.4.2 2 .5s1 .8 1.3 1.5l-1.4.6c-.3-.8-1-1.1-2-1.1-.5 0-.9.1-1.2.3s-.5.5-.5.8c0 .5.4.8 1.1 1l1.7.4c.8.2 1.4.5 1.8 1s.6 1 .6 1.5c0 .8-.3 1.4-.9 1.9-.5.4-1.3.7-2.3.7zm8.2-.2c-.9 0-1.6-.2-2.1-.7s-.7-1.2-.7-2v-4.5h-1.5v-1.5h1.5v-2.6h1.6v2.6h2.1v1.5h-2.1v4.4c0 .9.4 1.4 1.2 1.4.3 0 .5 0 .7-.1l.6 1.4c-.3 0-.8.1-1.3.1zm-97.4 16.7c-.9 0-1.8-.3-2.7-.9s-1.4-1.4-1.7-2.5l1.5-.6c.2.7.5 1.3 1.1 1.7.5.5 1.2.7 1.8.7.7 0 1.3-.2 1.8-.6s.7-.9.7-1.5c0-.7-.2-1.2-.7-1.6s-1.3-.7-2.4-1.1c-1.1-.3-1.9-.8-2.5-1.4s-.9-1.3-.9-2.1c0-.9.4-1.7 1.1-2.3.7-.7 1.6-1 2.8-1 1.1 0 1.9.3 2.6.8s1.1 1.1 1.3 1.7l-1.4.7c-.1-.4-.4-.8-.8-1.1s-.9-.5-1.6-.5c-.6 0-1.1.2-1.6.5-.4.3-.7.8-.7 1.3s.2.9.6 1.2 1 .6 1.8.9c.6.2 1.1.4 1.5.6s.8.4 1.3.7c.4.3.7.7 1 1.2.2.5.3 1 .3 1.6s-.1 1.1-.4 1.6-.6.9-1 1.1c-.4.3-.9.5-1.3.6-.5.2-1 .3-1.5.3zm9.5 0c-1.3 0-2.3-.4-3.2-1.3-.8-.9-1.2-2-1.2-3.3 0-1.2.4-2.3 1.2-3.2s1.8-1.3 3-1.3c1.3 0 2.3.4 3.1 1.2s1.1 1.9 1.1 3.3v.3h-6.8c0 .9.3 1.5.9 2 .5.5 1.2.8 1.9.8 1.2 0 1.9-.5 2.3-1.5l1.4.6c-.3.7-.7 1.2-1.4 1.7-.6.4-1.4.7-2.3.7zm2.3-5.6c0-.5-.3-1-.7-1.4s-1-.7-1.8-.7c-.6 0-1.1.2-1.5.6s-.7.9-.9 1.5zm5.5 5.6c-.9 0-1.7-.3-2.3-.8s-.9-1.2-.9-2.1.4-1.7 1.1-2.2 1.6-.8 2.7-.8c.9 0 1.7.2 2.3.5v-.2c0-.6-.2-1.1-.6-1.5s-1-.6-1.6-.6c-.5 0-.9.1-1.3.3s-.6.5-.8.9l-1.5-.6c.2-.5.6-1 1.2-1.4s1.4-.7 2.3-.7c1.1 0 2 .3 2.7 1 .7.6 1.1 1.5 1.1 2.7v5.2h-1.5v-1.2h-.1c-.6 1-1.5 1.5-2.8 1.5zm.3-1.5c.7 0 1.3-.2 1.8-.7s.8-1.1.8-1.8c-.5-.4-1.1-.6-2-.6-.8 0-1.4.2-1.8.5s-.6.7-.6 1.2c0 .4.2.8.5 1 .4.3.8.4 1.3.4zm8.8 1.5c-1 0-1.7-.2-2.4-.7-.6-.5-1.1-1-1.4-1.8l1.4-.6c.5 1.1 1.2 1.6 2.3 1.6.5 0 .9-.1 1.2-.3s.5-.5.5-.9c0-.6-.4-.9-1.2-1.1l-1.7-.4c-.5-.1-1.1-.4-1.6-.8s-.7-.9-.7-1.6c0-.8.3-1.4 1-1.8.7-.5 1.5-.7 2.4-.7.8 0 1.4.2 2 .5s1 .8 1.3 1.5l-1.4.6c-.3-.8-1-1.1-2-1.1-.5 0-.9.1-1.2.3-.1.1-.3.3-.3.7 0 .5.4.8 1.1 1l1.7.4c.8.2 1.4.5 1.8 1s.6 1 .6 1.5c0 .8-.3 1.4-.9 1.9-.7.5-1.5.8-2.5.8zm5.2-7.9c.8-.9 1.9-1.3 3.2-1.3s2.3.4 3.2 1.3c.8.9 1.2 2 1.2 3.3s-.4 2.4-1.2 3.3-1.9 1.3-3.2 1.3-2.3-.4-3.2-1.3c-.8-.9-1.2-2-1.2-3.3s.4-2.4 1.2-3.3zm1.2 5.5c.6.6 1.2.8 2 .8s1.4-.3 2-.8c.6-.6.8-1.3.8-2.2s-.3-1.7-.8-2.2c-.6-.6-1.2-.8-2-.8s-1.4.3-2 .8c-.6.6-.8 1.3-.8 2.2s.3 1.7.8 2.2zm9.1-6.5v1.2h.1c.2-.4.6-.8 1.1-1 .5-.3 1-.4 1.6-.4 1.1 0 1.9.3 2.4 1 .6.7.8 1.5.8 2.6v5.2h-1.6v-5c0-1.6-.7-2.4-2.1-2.4-.7 0-1.2.3-1.6.8s-.6 1.1-.6 1.8v4.7h-1.6v-8.6h1.5zm19.2 8.6h-7.6v-1.6c2.3-2.3 3.8-3.8 4.4-4.5.6-.6 1-1.1 1.2-1.5.2-.3.3-.7.3-1.2s-.2-.9-.6-1.3-.9-.6-1.6-.6c-.6 0-1.1.2-1.5.5-.4.4-.6.7-.7 1.1l-1.6-.6c.2-.6.6-1.2 1.2-1.8s1.4-.8 2.4-.8c1.1 0 2 .3 2.7 1s1.1 1.5 1.1 2.4c0 1.2-.6 2.4-1.9 3.7l-3.5 3.5h5.5v1.7zm9.2-1.5c-.9 1.2-2 1.8-3.5 1.8-1.4 0-2.6-.6-3.5-1.8s-1.3-2.7-1.3-4.5.4-3.3 1.3-4.5 2-1.8 3.5-1.8c1.4 0 2.6.6 3.5 1.8s1.3 2.7 1.3 4.5-.4 3.3-1.3 4.5zm-3.5.2c1 0 1.7-.4 2.3-1.3s.9-2 .9-3.4-.3-2.5-.9-3.4-1.3-1.3-2.3-1.3-1.7.4-2.3 1.3-.9 2-.9 3.4.3 2.5.9 3.4c.5.9 1.3 1.3 2.3 1.3zm9.9 1.3h-1.6v-10l-2.3 1-.6-1.4 3.5-1.6h1zm8.8-.8c-.8.7-1.7 1-2.9 1-1.1 0-2.1-.3-2.9-1s-1.2-1.5-1.2-2.6c0-.7.2-1.3.5-1.8.4-.5.8-.9 1.4-1.2v-.1c-.5-.3-.8-.7-1.1-1.1s-.4-.9-.4-1.4c0-1 .3-1.8 1-2.4s1.6-1 2.6-1c1.1 0 1.9.3 2.6 1 .7.6 1 1.5 1 2.4 0 .5-.1 1-.4 1.4s-.7.8-1.1 1.1v.1c.6.3 1.1.7 1.4 1.2.4.5.5 1.1.5 1.8.2 1.1-.2 1.9-1 2.6zm-4.6-1.1c.5.4 1 .6 1.7.6s1.2-.2 1.7-.6.7-.9.7-1.5-.2-1.1-.7-1.5-1-.6-1.7-.6-1.2.2-1.7.6-.7.9-.7 1.5.3 1.1.7 1.5zm.3-5.7c.4.3.9.5 1.4.5.6 0 1.1-.2 1.4-.5.4-.3.6-.8.6-1.4s-.2-1-.6-1.3-.9-.5-1.4-.5c-.6 0-1.1.2-1.4.5-.4.3-.6.8-.6 1.3 0 .6.2 1.1.6 1.4z"/></g></svg>